<?xml version="1.0" standalone="no"?>
<!DOCTYPE svg PUBLIC "-//W3C//DTD SVG 20010904//EN"
 "http://www.w3.org/TR/2001/REC-SVG-20010904/DTD/svg10.dtd">
<svg version="1.0" xmlns="http://www.w3.org/2000/svg"
 width="900.000000pt" height="900.000000pt" viewBox="0 0 900.000000 900.000000"
 preserveAspectRatio="xMidYMid meet">
<metadata>
Created by potrace 1.14, written by Peter Selinger 2001-2017
</metadata>
<g transform="translate(0.000000,900.000000) scale(0.100000,-0.100000)"
fill="#000000" stroke="none">
<path d="M0 4500 l0 -4500 4500 0 4500 0 0 4500 0 4500 -4500 0 -4500 0 0
-4500z m4545 3310 c352 -15 607 -62 771 -142 82 -40 157 -120 203 -215 42 -86
72 -119 130 -138 50 -16 240 -46 421 -66 144 -16 534 -17 660 -1 501 63 786
79 1113 63 401 -19 817 -88 935 -154 22 -13 21 -13 -30 -52 -83 -62 -316 -300
-404 -410 -208 -263 -372 -581 -430 -835 -21 -92 -29 -399 -15 -546 24 -234
58 -365 181 -699 192 -519 234 -907 144 -1338 -14 -65 -34 -148 -45 -185 -22
-72 -149 -412 -158 -424 -4 -4 -29 20 -56 53 -179 218 -496 315 -1245 383
-409 38 -632 48 -1075 50 -388 1 -402 2 -454 23 -116 48 -181 117 -188 201 -3
26 2 90 10 143 22 139 12 176 -67 254 -65 65 -170 133 -256 166 -29 11 -95 24
-149 29 -122 12 -948 12 -1232 0 -326 -13 -550 -62 -1119 -245 -176 -57 -250
-85 -250 -95 0 -10 12 -7 149 32 81 23 106 27 115 17 8 -9 8 -10 -2 -5 -10 6
-11 -5 -6 -51 3 -32 5 -85 3 -118 -4 -96 7 -271 18 -289 4 -5 8 -46 9 -91 3
-95 13 -214 20 -235 7 -20 23 -166 29 -265 3 -44 10 -132 16 -195 6 -63 13
-151 14 -195 6 -156 25 -441 34 -490 4 -27 29 -148 55 -268 26 -120 45 -225
42 -233 -3 -8 -17 -14 -32 -14 -26 0 -64 -10 -324 -86 -69 -20 -142 -37 -164
-38 l-38 -1 -18 75 c-65 272 -83 337 -104 378 -29 58 -88 249 -161 527 -33
126 -83 299 -105 365 -5 14 -20 66 -35 115 -14 50 -37 124 -50 165 -13 41 -36
118 -51 170 -15 52 -31 102 -35 110 -5 8 -24 69 -44 135 -20 66 -47 158 -61
205 -14 47 -34 123 -45 170 -11 47 -26 105 -34 130 -26 84 -45 155 -79 300
-34 144 -79 324 -137 554 -17 65 -36 149 -44 185 -12 62 -30 145 -75 356 -31
142 -67 324 -79 400 -7 39 -27 142 -46 230 -19 88 -46 221 -61 295 -14 74 -28
144 -30 155 -11 53 -56 314 -73 425 -18 112 -27 236 -35 497 -1 45 2 102 8
127 10 43 13 47 76 74 103 47 205 73 370 96 19 3 53 2 75 -2 31 -6 41 -12 43
-29 3 -21 11 -19 220 54 556 193 719 239 1097 308 556 101 894 127 1865 143
47 1 189 -3 315 -8z m70 -3880 c155 -37 375 -203 375 -282 0 -26 -30 -35 -45
-15 -7 9 -14 15 -16 13 -2 -3 -29 2 -59 10 -74 19 -90 18 -90 -6 0 -24 -26
-26 -54 -5 -27 20 -46 19 -46 -3 0 -15 -9 -17 -65 -15 -39 1 -74 8 -87 18 -28
19 -48 19 -48 1 0 -8 -23 -17 -67 -24 -56 -9 -70 -9 -83 3 -23 20 -30 19 -30
-6 0 -19 -4 -21 -38 -15 -35 5 -40 3 -50 -19 -14 -30 -26 -31 -51 -6 -29 29
-86 38 -95 16 -5 -14 -15 -16 -46 -12 -27 3 -40 1 -40 -6 0 -7 -7 -4 -14 6
-15 19 -36 23 -36 6 0 -7 -10 -9 -25 -5 -14 3 -36 9 -50 12 -21 5 -25 3 -25
-16 0 -19 -4 -21 -25 -16 -18 5 -25 2 -25 -9 0 -21 -27 -19 -39 3 -7 11 -10
12 -11 3 0 -8 -6 -11 -17 -6 -10 3 -40 8 -66 11 -27 2 -52 6 -57 9 -5 3 -10 0
-12 -7 -4 -10 -10 -10 -31 -1 -24 11 -27 11 -27 -7 0 -32 -15 -23 -31 17 l-14
36 -5 -29 c-5 -28 -7 -29 -60 -27 -30 1 -84 8 -120 17 -50 12 -66 12 -72 3 -6
-9 -13 -6 -26 9 -17 21 -134 58 -176 56 -10 -1 -31 5 -47 13 -21 11 -28 12
-32 2 -2 -8 -17 -3 -45 16 -23 15 -44 27 -46 27 -2 0 -7 -13 -11 -30 -4 -16
-11 -30 -16 -30 -5 0 -9 -7 -9 -16 0 -33 -30 8 -46 62 -17 58 -26 66 -40 34
-9 -20 -10 -19 -45 10 -20 16 -58 35 -85 42 -27 6 -53 15 -57 18 -17 15 340
102 553 136 152 24 1427 27 1525 4z m-2647 -3235 c12 -11 31 -132 26 -169 -5
-36 -9 -43 -25 -39 -11 3 -21 -1 -24 -10 -5 -13 -12 -12 -47 5 -22 11 -53 22
-67 24 -14 2 -37 7 -51 10 -14 3 -26 5 -28 5 -1 -1 -29 12 -62 29 -33 16 -66
30 -75 30 -31 0 -13 16 68 59 111 60 150 72 222 65 33 -4 61 -8 63 -9z m913
-56 c58 -12 161 -57 166 -74 2 -6 -12 -18 -30 -28 -26 -14 -37 -31 -55 -81
-25 -71 -43 -90 -184 -199 -92 -71 -100 -76 -140 -72 -75 6 -134 21 -177 43
-23 12 -48 22 -56 22 -8 0 -48 15 -90 33 l-76 34 59 36 c65 40 163 139 232
234 l45 62 126 1 c69 0 150 -5 180 -11z"/>
<path d="M2763 7357 c-178 -195 -524 -608 -636 -758 l-28 -37 66 -51 65 -51
33 37 c165 186 236 268 397 454 102 118 221 255 265 304 44 50 86 97 93 106
11 15 4 23 -50 66 -35 27 -68 53 -74 56 -7 4 -63 -50 -131 -126z"/>
<path d="M3015 7197 c-277 -312 -394 -448 -633 -737 l-62 -75 43 -38 c77 -69
84 -72 109 -51 11 11 98 107 192 214 154 176 324 367 351 396 47 50 241 268
243 273 3 8 -133 121 -145 120 -4 0 -48 -46 -98 -102z"/>
<path d="M3194 6948 c-275 -304 -463 -518 -607 -690 l-47 -57 65 -55 c37 -31
69 -56 73 -55 4 0 59 60 124 132 308 349 400 452 515 573 128 136 163 177 163
189 0 7 -67 69 -116 108 -22 17 -23 17 -170 -145z"/>
<path d="M6635 7019 c-44 -23 -84 -45 -88 -49 -12 -11 165 -466 192 -493 8 -8
138 53 177 85 8 6 -6 49 -48 151 -33 78 -77 187 -98 242 -21 54 -42 101 -47
102 -4 2 -44 -15 -88 -38z"/>
<path d="M6328 6864 c-49 -26 -88 -50 -88 -55 0 -14 113 -293 165 -409 50
-111 214 -444 244 -495 10 -16 35 -60 55 -98 l37 -67 90 46 c49 25 89 49 89
53 0 4 -28 59 -62 122 -125 232 -288 589 -385 843 -21 55 -42 101 -48 102 -5
2 -49 -17 -97 -42z"/>
<path d="M6030 6713 c-47 -25 -86 -48 -88 -52 -6 -18 199 -491 213 -491 17 0
175 87 175 96 0 6 -12 38 -26 70 -15 33 -59 140 -99 239 -40 98 -76 180 -81
181 -5 1 -47 -18 -94 -43z"/>
<path d="M4275 6505 c-247 -39 -412 -108 -605 -253 -463 -347 -567 -972 -232
-1393 191 -240 450 -398 824 -503 418 -118 793 -89 1047 79 139 93 224 189
296 334 59 120 84 200 101 336 41 317 -47 643 -241 902 -132 174 -260 280
-468 384 -213 107 -491 151 -722 114z"/>
<path d="M6880 6420 c-46 -26 -86 -52 -88 -58 -3 -11 146 -311 208 -420 l31
-53 87 47 c48 26 89 49 91 51 4 3 -231 473 -239 477 -3 2 -43 -18 -90 -44z"/>
<path d="M6288 6114 c-49 -24 -88 -47 -88 -50 0 -25 238 -454 255 -460 15 -6
175 72 175 85 0 6 -26 57 -59 115 -32 59 -87 162 -122 231 -35 69 -66 125 -69
124 -3 0 -44 -20 -92 -45z"/>
<path d="M2498 5116 c-31 -17 -59 -34 -62 -37 -3 -3 14 -38 39 -78 25 -40 45
-74 45 -76 0 -10 108 -179 220 -345 9 -14 67 -101 130 -193 62 -93 118 -171
124 -173 13 -5 149 51 154 64 1 4 -46 76 -105 158 -133 186 -365 534 -424 636
-24 43 -48 77 -54 76 -5 0 -36 -15 -67 -32z"/>
<path d="M2250 4989 c-30 -16 -59 -30 -64 -32 -6 -2 -1 -17 10 -33 12 -16 23
-36 26 -45 4 -9 44 -74 90 -145 47 -71 89 -136 94 -146 8 -14 16 -13 77 17 37
18 68 36 68 40 1 6 -102 168 -181 285 -20 30 -40 63 -43 73 -8 22 -10 21 -77
-14z"/>
<path d="M2030 4877 c-63 -30 -90 -52 -84 -69 8 -26 136 -233 329 -533 105
-163 125 -196 159 -252 21 -35 40 -63 42 -63 13 0 144 76 144 83 0 5 -9 21
-21 35 -11 15 -65 97 -120 182 -54 85 -159 247 -233 360 -74 113 -142 218
-153 234 -22 36 -30 39 -63 23z"/>
<path d="M6332 4562 c-34 -42 -100 -122 -147 -177 -46 -55 -84 -104 -84 -110
-1 -10 152 -105 168 -105 14 0 303 362 294 369 -38 25 -161 101 -164 101 -2 0
-32 -35 -67 -78z"/>
<path d="M2542 4510 c-44 -21 -61 -34 -56 -42 4 -7 15 -24 25 -38 9 -14 30
-47 47 -75 17 -27 35 -55 39 -60 5 -6 37 -53 72 -106 l63 -96 65 27 c35 15 69
32 75 38 8 8 -7 38 -55 109 -134 200 -184 268 -198 271 -8 1 -42 -11 -77 -28z"/>
<path d="M6595 4382 c-38 -48 -103 -127 -143 -175 -41 -48 -72 -94 -69 -101 7
-17 158 -107 168 -100 13 8 289 354 289 362 0 8 -153 102 -167 102 -4 0 -39
-39 -78 -88z"/>
<path d="M6900 4263 c-19 -26 -83 -108 -142 -182 -60 -73 -108 -137 -108 -140
0 -8 153 -101 167 -101 13 0 293 354 293 371 0 7 -156 99 -167 99 -5 0 -24
-22 -43 -47z"/>
<path d="M5886 4030 c-80 -93 -146 -172 -146 -174 0 -5 54 -41 141 -94 l37
-22 83 97 c141 165 209 247 209 255 0 5 -72 49 -171 104 -4 2 -73 -72 -153
-166z"/>
<path d="M6224 3928 c-49 -57 -114 -134 -146 -171 -32 -38 -58 -72 -58 -77 0
-9 155 -110 169 -110 5 0 40 37 78 83 109 129 209 251 216 263 4 8 -25 31 -78
63 -47 28 -87 51 -90 51 -2 0 -43 -46 -91 -102z"/>
<path d="M6436 3686 c-80 -96 -146 -179 -146 -183 1 -4 38 -31 83 -60 l82 -52
39 42 c21 23 84 98 139 167 55 69 107 132 114 142 13 14 7 21 -59 64 -40 26
-80 49 -90 51 -11 4 -59 -46 -162 -171z"/>
</g>
</svg>
